<svg width="20" height="20" viewBox="0 0 19 18" fill="none" xmlns="http://www.w3.org/2000/svg">
<path d="M9.5 0C4.5275 0 0.5 4.0275 0.5 9C0.5 13.9725 4.5275 18 9.5 18C14.4725 18 18.5 13.9725 18.5 9C18.5 4.0275 14.4725 0 9.5 0ZM9.5 2.7C10.9895 2.7 12.2 3.9105 12.2 5.4C12.2 6.894 10.9895 8.1 9.5 8.1C8.0105 8.1 6.8 6.894 6.8 5.4C6.8 3.9105 8.0105 2.7 9.5 2.7ZM9.5 15.48C7.2455 15.48 5.2655 14.328 4.1 12.582C4.1225 10.7955 7.7045 9.81 9.5 9.81C11.2955 9.81 14.873 10.7955 14.9 12.582C13.7345 14.328 11.7545 15.48 9.5 15.48Z" fill="#F0F0F0"/>
</svg>
