<svg width="14" height="14" viewBox="0 0 14 14" fill="none" xmlns="http://www.w3.org/2000/svg">
<path d="M4.20388 14C3.81853 14 3.48876 13.863 3.21457 13.5891C2.94038 13.3151 2.80306 12.9854 2.80259 12.6C2.80212 12.2145 2.93945 11.885 3.21457 11.6116C3.48969 11.3381 3.81946 11.2009 4.20388 11.2C4.58831 11.1991 4.91831 11.3363 5.1939 11.6116C5.46949 11.8869 5.60658 12.2164 5.60518 12.6C5.60378 12.9836 5.46668 13.3133 5.1939 13.5891C4.92111 13.8649 4.59111 14.0018 4.20388 14ZM11.2104 14C10.825 14 10.4952 13.863 10.221 13.5891C9.94686 13.3151 9.80953 12.9854 9.80906 12.6C9.8086 12.2145 9.94592 11.885 10.221 11.6116C10.4962 11.3381 10.8259 11.2009 11.2104 11.2C11.5948 11.1991 11.9248 11.3363 12.2004 11.6116C12.476 11.8869 12.6131 12.2164 12.6117 12.6C12.6102 12.9836 12.4732 13.3133 12.2004 13.5891C11.9276 13.8649 11.5976 14.0018 11.2104 14ZM3.60833 2.8L5.28989 6.29999H10.1944L12.1212 2.8H3.60833ZM2.94272 1.4H13.2773C13.5458 1.4 13.7502 1.5197 13.8903 1.7591C14.0305 1.9985 14.0363 2.24046 13.9078 2.485L11.4206 6.96499C11.2921 7.19832 11.12 7.37916 10.9042 7.50749C10.6884 7.63582 10.4518 7.69999 10.1944 7.69999H4.9746L4.20388 9.09999H12.6117V10.5H4.20388C3.6784 10.5 3.28136 10.2697 3.01278 9.80909C2.7442 9.34849 2.73252 8.89045 2.97775 8.43499L3.92362 6.71999L1.40129 1.4H0V0H2.2771L2.94272 1.4Z" fill="url(#paint0_linear_370_1878)"/>
<defs>
<linearGradient id="paint0_linear_370_1878" x1="4.70688" y1="1.65456" x2="6.9959" y2="14.0008" gradientUnits="userSpaceOnUse">
<stop stop-color="#FF9900"/>
<stop offset="1" stop-color="#FFEB3A"/>
</linearGradient>
</defs>
</svg>
