<svg width="20" height="16" viewBox="0 0 20 16" fill="none" xmlns="http://www.w3.org/2000/svg">
<path d="M1.42858 7.31825H10V8.68175H1.42858V7.31825ZM0 3.90948H7.14288V5.27299H0V3.90948Z" fill="url(#paint0_linear_370_1870)"/>
<path d="M19.9422 7.73068L17.7993 2.95929C17.7442 2.8367 17.6527 2.73223 17.536 2.6588C17.4193 2.58538 17.2826 2.54624 17.1429 2.54622H15V1.18297C15 1.00219 14.9247 0.828817 14.7908 0.700987C14.6568 0.573157 14.4751 0.501343 14.2857 0.501343H2.8571V1.8646H13.5714V10.4231C13.2461 10.6037 12.9614 10.8438 12.7337 11.1297C12.5059 11.4156 12.3396 11.7416 12.2443 12.089H7.75569C7.58183 11.4465 7.16838 10.8865 6.59282 10.514C6.01726 10.1416 5.31912 9.98223 4.62925 10.0659C3.93938 10.1495 3.30515 10.4703 2.84544 10.9683C2.38573 11.4662 2.13211 12.107 2.13211 12.7706C2.13211 13.4342 2.38573 14.0751 2.84544 14.573C3.30515 15.0709 3.93938 15.3918 4.62925 15.4754C5.31912 15.559 6.01726 15.3997 6.59282 15.0272C7.16838 14.6548 7.58183 14.0948 7.75569 13.4523H12.2443C12.3997 14.0373 12.755 14.5561 13.2541 14.9267C13.7532 15.2974 14.3676 15.4986 15 15.4986C15.6324 15.4986 16.2468 15.2974 16.7459 14.9267C17.245 14.5561 17.6003 14.0373 17.7557 13.4523H19.2857C19.4752 13.4523 19.6568 13.3804 19.7908 13.2526C19.9248 13.1248 20 12.9514 20 12.7706V7.99924C20 7.9069 19.9803 7.81554 19.9422 7.73068ZM4.99996 14.1339C4.71742 14.1339 4.44122 14.0539 4.20629 13.9041C3.97136 13.7543 3.78826 13.5414 3.68013 13.2923C3.57201 13.0432 3.54372 12.7691 3.59884 12.5047C3.65396 12.2402 3.79002 11.9973 3.98981 11.8067C4.1896 11.616 4.44415 11.4862 4.72126 11.4336C4.99838 11.381 5.28562 11.408 5.54666 11.5111C5.80769 11.6143 6.03081 11.7891 6.18778 12.0132C6.34476 12.2374 6.42854 12.501 6.42854 12.7706C6.42854 13.1322 6.27803 13.4789 6.01012 13.7346C5.74221 13.9903 5.37885 14.1339 4.99996 14.1339ZM15 3.90948H16.6714L18.2029 7.31761H15V3.90948ZM15 14.1339C14.7174 14.1339 14.4412 14.0539 14.2063 13.9041C13.9714 13.7543 13.7883 13.5414 13.6802 13.2923C13.572 13.0432 13.5437 12.7691 13.5989 12.5047C13.654 12.2402 13.79 11.9973 13.9898 11.8067C14.1896 11.616 14.4442 11.4862 14.7213 11.4336C14.9984 11.381 15.2856 11.408 15.5467 11.5111C15.8077 11.6143 16.0308 11.7891 16.1878 12.0132C16.3448 12.2374 16.4286 12.501 16.4286 12.7706C16.4286 13.1322 16.2781 13.4789 16.0101 13.7346C15.7422 13.9903 15.3789 14.1339 15 14.1339ZM18.5714 12.089H17.7557C17.5984 11.5051 17.2425 10.9876 16.7437 10.6175C16.245 10.2475 15.6317 10.0458 15 10.0441V8.68087H18.5714V12.089Z" fill="url(#paint1_linear_370_1870)"/>
<defs>
<linearGradient id="paint0_linear_370_1870" x1="3.36207" y1="4.47348" x2="3.74424" y2="8.79286" gradientUnits="userSpaceOnUse">
<stop stop-color="#FF9900"/>
<stop offset="1" stop-color="#FFEB3A"/>
</linearGradient>
<linearGradient id="paint1_linear_370_1870" x1="8.1394" y1="2.27376" x2="10.2179" y2="15.6306" gradientUnits="userSpaceOnUse">
<stop stop-color="#FF9900"/>
<stop offset="1" stop-color="#FFEB3A"/>
</linearGradient>
</defs>
</svg>
